<svg id="Calque_1" data-name="Calque 1" xmlns="http://www.w3.org/2000/svg" viewBox="0 0 198.09 133.89"><defs><style>.cls-1,.cls-2,.cls-3{fill:#009bb3;}.cls-2{font-size:37px;}.cls-2,.cls-3{font-family:NovaMono;}.cls-3{font-size:29px;}</style></defs><title>openlaser2</title><path class="cls-1" d="M140.49,133.16l3.06-16.44a1.4,1.4,0,0,1,.83-1l11.76-5a1.36,1.36,0,0,1,1.27.08l14,9.58a.93.93,0,0,0,1.14-.11l12-12a.92.92,0,0,0,.1-1.13L174.83,93a1.38,1.38,0,0,1-.1-1.28l4.67-11.39a1.37,1.37,0,0,1,1-.84l17-3.17a.93.93,0,0,0,.73-.87V58.49a.93.93,0,0,0-.73-.88l-17-3.16a1.42,1.42,0,0,1-1-.84l-4.67-11.4a1.38,1.38,0,0,1,.1-1.28l9.74-14.2a.93.93,0,0,0-.1-1.14l-12-12a.93.93,0,0,0-1.14-.11l-14,9.58a1.36,1.36,0,0,1-1.27.08l-11.76-5a1.4,1.4,0,0,1-.83-1L140.49.73a.94.94,0,0,0-.88-.73H122.69a.94.94,0,0,0-.88.73l-3,16a1.34,1.34,0,0,1-.84,1l-12.51,5a1.41,1.41,0,0,1-1.28-.09L90.93,13.52a1,1,0,0,0-1.14.1l-12,12a.93.93,0,0,0-.1,1.14l9,13a1.29,1.29,0,0,1,0,1.25l-3.07,5.75a.68.68,0,0,0,.35,1l28.64,11.85a.89.89,0,0,0,1.07-.34l.89-1.44a6.62,6.62,0,0,1,.69-.91,18.71,18.71,0,1,1,0,20.15,6.62,6.62,0,0,1-.69-.91l-.89-1.44a.91.91,0,0,0-1.07-.35L84,86.18a.67.67,0,0,0-.35.94l3.07,5.75a1.27,1.27,0,0,1,0,1.25l-8.94,13a.93.93,0,0,0,.1,1.14l12,12a.93.93,0,0,0,1.14.11l13.27-9.11a1.45,1.45,0,0,1,1.28-.1l12.51,5a1.36,1.36,0,0,1,.84,1l3,16a.94.94,0,0,0,.88.73h16.92a.94.94,0,0,0,.88-.73"/><path class="cls-1" d="M131.45,53.77a13.15,13.15,0,0,0-11.88,7.51H5.67a5.67,5.67,0,1,0,0,11.33h113.9a13.17,13.17,0,1,0,11.88-18.84Z"/><text class="cls-2" transform="translate(2.86 56.35)">Open</text><text class="cls-3" transform="translate(3.13 92.35)">Laser</text></svg>