<?xml version="1.0" encoding="utf-8"?>
<!-- Generator: Adobe Illustrator 24.0.0, SVG Export Plug-In . SVG Version: 6.00 Build 0)  -->
<svg version="1.1" id="Calque_1" xmlns="http://www.w3.org/2000/svg" xmlns:xlink="http://www.w3.org/1999/xlink" x="0px" y="0px"
	 viewBox="0 0 133.9 133.9" style="enable-background:new 0 0 133.9 133.9;" xml:space="preserve">
<style type="text/css">
	.st0{fill:#009BB3;}
	.st1{clip-path:url(#SVGID_2_);fill:#009BB3;}
</style>
<g>
	<path class="st0" d="M21.4,37.1v11.2c0,2.2-0.8,4.1-2.4,5.7c-1.6,1.6-3.5,2.4-5.8,2.4c-2.3,0-4.2-0.8-5.8-2.3
		c-1.6-1.6-2.4-3.5-2.4-5.7V37.1c0-2.2,0.8-4.1,2.4-5.7c1.6-1.6,3.5-2.4,5.8-2.4c2.3,0,4.2,0.8,5.8,2.4C20.6,33,21.4,34.9,21.4,37.1
		z M8,37v11.3c0,1.4,0.5,2.7,1.5,3.7c1,1,2.3,1.5,3.7,1.5c1.4,0,2.7-0.5,3.7-1.5c1-1,1.5-2.2,1.6-3.7V37c0-1.4-0.5-2.7-1.6-3.7
		c-1-1-2.3-1.5-3.7-1.5c-1.5,0-2.7,0.5-3.7,1.5C8.5,34.4,8,35.6,8,37z"/>
	<path class="st0" d="M27.2,63.4V42.9c0-1.9,0.7-3.5,2-4.8c1.3-1.3,2.9-2,4.8-2s3.5,0.7,4.8,2c1.3,1.3,2,2.9,2,4.8v6.6
		c0,1.9-0.7,3.5-2,4.8c-1.3,1.3-2.9,2-4.8,2c-1.5,0-2.8-0.4-3.9-1.2v7L27.2,63.4z M30.1,49.5c0,1.1,0.4,2,1.2,2.8
		c0.8,0.8,1.8,1.1,2.8,1.1c1,0,1.9-0.4,2.7-1.1c0.7-0.7,1.1-1.7,1.2-2.8V43c0-1.1-0.4-2-1.2-2.8C36,39.4,35.1,39,33.9,39
		c-1,0-1.9,0.4-2.7,1.1c-0.7,0.7-1.1,1.6-1.1,2.7V43V49.5z"/>
	<path class="st0" d="M54.9,53.4c1,0,1.9-0.4,2.7-1.1c0.7-0.7,1.1-1.7,1.2-2.8v-0.3l2.9-1.3v1.6c0,1.7-0.7,3.3-2.2,4.8
		c-1.2,1.3-2.8,2-4.7,2s-3.5-0.7-4.8-2c-1.3-1.3-2-2.9-2-4.8v-6.6c0-1.9,0.7-3.5,2-4.8c1.3-1.3,2.9-2,4.8-2c1.8,0,3.4,0.7,4.8,2
		c1.3,1.3,2,2.9,2,4.8v1.7l-10.7,4.8c0,1.1,0.4,2.1,1.1,2.9C52.8,53,53.7,53.4,54.9,53.4z M54.7,39c-1,0-1.9,0.4-2.7,1.1
		c-0.8,0.8-1.1,1.7-1.1,2.7c0,0,0,0,0,0.1v3.3l7.8-3.5c-0.1-1-0.4-1.9-1.1-2.6C56.8,39.4,55.8,39,54.7,39z"/>
	<path class="st0" d="M68.8,56.4V42.9c0-1.9,0.7-3.5,2-4.8c1.3-1.3,2.9-2,4.8-2s3.5,0.7,4.8,2c1.3,1.3,2,2.9,2,4.8v12.2l-2.9,1.3V43
		c0-1.1-0.4-2-1.2-2.8c-0.8-0.8-1.7-1.1-2.7-1.1c-1.1,0-2,0.4-2.8,1.2c-0.8,0.7-1.2,1.7-1.2,2.7c0,0,0,0,0,0.1v12.1L68.8,56.4z"/>
</g>
<g>
	<path class="st0" d="M5.1,71.9l2.3-1v18.8h10.1l-1,2.3H5.1V71.9z"/>
	<path class="st0" d="M24.5,88.2c0,0.3,0.1,0.6,0.4,1c0.5,0.6,1.2,0.9,2.2,0.9c0.6,0,1.1-0.1,1.6-0.4l0.8,2.1
		c-0.7,0.4-1.6,0.6-2.5,0.6c-1.4,0-2.7-0.5-3.8-1.6c-0.7-0.8-1.1-1.6-1.1-2.6c0,0,0-0.1,0-0.1c0-1.8,0.9-3,2.7-3.7l5.8-2.4
		c0-0.9-0.3-1.6-0.9-2.3c-0.6-0.6-1.3-0.9-2.3-0.9c-0.8,0-1.5,0.3-2.1,0.9c-0.6,0.6-0.9,1.3-0.9,2.2v0.2l-2.3,1v-1.2
		c0-1.3,0.6-2.6,1.7-3.8c1-1,2.2-1.5,3.7-1.5s2.7,0.5,3.8,1.6c1,1,1.6,2.3,1.6,3.8v9.5l-2.3,1v-7.9L26,86.3
		C25,86.8,24.5,87.4,24.5,88.2z"/>
	<path class="st0" d="M43.9,90.1c0.8,0,1.5-0.3,2.1-0.8c0.5-0.6,0.8-1.2,0.8-2c0-0.6-0.3-1.2-0.8-1.8c-0.6-0.6-1.3-0.9-2.3-0.9
		c-1.2-0.1-2.1-0.4-2.8-1.1c-0.7-0.6-1.1-1.5-1.2-2.7c0-0.1,0-0.2,0-0.3c0-1,0.5-1.9,1.2-2.7c0.8-0.8,1.8-1.3,2.9-1.3
		c1.2,0,2.2,0.4,2.9,1.3c0.5,0.6,0.9,1.3,1.1,2.3L46,80.9c-0.2-0.6-0.4-1.1-0.7-1.5c-0.3-0.4-0.8-0.6-1.3-0.6c-0.5,0-1,0.2-1.4,0.6
		c-0.4,0.4-0.5,0.8-0.5,1.2c0,0,0,0,0,0.1c0,0.5,0.2,0.8,0.5,1.2c0.3,0.3,0.8,0.5,1.4,0.6c1.6,0.2,2.9,0.7,3.8,1.5
		c1,0.9,1.4,2.1,1.4,3.4v0c0,1.3-0.5,2.4-1.4,3.4c-1,1-2.2,1.6-3.8,1.6c-1.5,0-2.7-0.5-3.7-1.5c-1.1-1.1-1.6-2.4-1.7-3.8l0-0.1
		l2.3-1l0,1.1c0,0.9,0.3,1.6,0.9,2.2C42.4,89.8,43.1,90.1,43.9,90.1z"/>
	<path class="st0" d="M60.2,90.1c0.8,0,1.5-0.3,2.1-0.9c0.6-0.6,0.9-1.3,0.9-2.2v-0.2l2.3-1V87c0,1.3-0.6,2.6-1.7,3.8
		c-1,1-2.2,1.5-3.7,1.5s-2.7-0.5-3.8-1.6c-1-1-1.6-2.3-1.6-3.8v-5.2c0-1.5,0.5-2.7,1.6-3.8c1-1,2.3-1.6,3.8-1.6
		c1.4,0,2.7,0.5,3.8,1.6c1,1,1.6,2.2,1.6,3.8v1.3l-8.4,3.7c0,0.9,0.3,1.6,0.9,2.3C58.5,89.8,59.3,90.1,60.2,90.1z M60,78.8
		c-0.8,0-1.5,0.3-2.1,0.9c-0.6,0.6-0.9,1.3-0.9,2.1c0,0,0,0,0,0v2.5l6.1-2.7c0-0.8-0.3-1.5-0.9-2C61.7,79.1,60.9,78.8,60,78.8z"/>
	<path class="st0" d="M71.1,92.4V81.8c0-1.5,0.5-2.7,1.6-3.8c1-1,2.3-1.6,3.8-1.6c1.5,0,2.8,0.5,3.8,1.6c1,1.1,1.6,2.3,1.6,3.8v0.1
		l-2.3,1v-1c0-0.9-0.3-1.6-0.9-2.2c-0.6-0.6-1.3-0.9-2.1-0.9c-0.9,0-1.6,0.3-2.2,0.9s-0.9,1.3-0.9,2.1c0,0,0,0,0,0v9.5L71.1,92.4z"
		/>
</g>
<g>
	<defs>
		<rect id="SVGID_1_" width="133.9" height="133.9"/>
	</defs>
	<clipPath id="SVGID_2_">
		<use xlink:href="#SVGID_1_"  style="overflow:visible;"/>
	</clipPath>
	<path class="st1" d="M140.5,133.2l3.1-16.4c0.1-0.4,0.5-0.8,0.8-1l11.8-5c0.4-0.2,0.9-0.2,1.3,0.1l14,9.6c0.3,0.2,0.8,0.2,1.1-0.1
		l12-12c0.3-0.3,0.3-0.8,0.1-1.1L174.8,93c-0.2-0.3-0.3-0.9-0.1-1.3l4.7-11.4c0.1-0.4,0.6-0.8,1-0.8l17-3.2c0.4-0.1,0.7-0.5,0.7-0.9
		V58.5c0-0.4-0.3-0.8-0.7-0.9l-17-3.2c-0.4-0.1-0.8-0.5-1-0.8l-4.7-11.4c-0.2-0.4-0.1-0.9,0.1-1.3l9.7-14.2c0.2-0.3,0.2-0.8-0.1-1.1
		l-12-12c-0.3-0.3-0.8-0.3-1.1-0.1l-14,9.6c-0.3,0.2-0.9,0.3-1.3,0.1l-11.8-5c-0.4-0.1-0.8-0.6-0.8-1l-3.1-16.4
		C140.4,0.3,140,0,139.6,0l-16.9,0c-0.4,0-0.8,0.3-0.9,0.7l-3,16c-0.1,0.4-0.5,0.8-0.8,1l-12.5,5c-0.4,0.2-0.9,0.1-1.3-0.1
		l-13.3-9.1c-0.3-0.2-0.8-0.2-1.1,0.1l-12,12c-0.3,0.3-0.3,0.8-0.1,1.1l8.9,13c0.2,0.3,0.2,0.9,0,1.2l-3.1,5.8
		c-0.2,0.4,0,0.8,0.3,0.9l28.6,11.9c0.4,0.2,0.9,0,1.1-0.3l0.9-1.4c0.2-0.3,0.4-0.6,0.7-0.9c3.3-5.2,9.1-8.6,15.8-8.6
		c10.3,0,18.7,8.4,18.7,18.7s-8.4,18.7-18.7,18.7c-6.6,0-12.4-3.4-15.8-8.6c-0.3-0.3-0.5-0.6-0.7-0.9l-0.9-1.4
		c-0.2-0.3-0.7-0.5-1.1-0.3L84,86.2c-0.4,0.2-0.5,0.6-0.3,0.9l3.1,5.8c0.2,0.4,0.2,0.9,0,1.2l-8.9,13c-0.2,0.3-0.2,0.8,0.1,1.1
		l12,12c0.3,0.3,0.8,0.3,1.1,0.1l13.3-9.1c0.3-0.2,0.9-0.3,1.3-0.1l12.5,5c0.4,0.1,0.8,0.5,0.8,1l3,16c0.1,0.4,0.5,0.7,0.9,0.7
		l16.9,0C140,133.9,140.4,133.6,140.5,133.2"/>
	<path class="st1" d="M131.4,53.8c-5.2,0-9.8,3.1-11.9,7.5H5.7c-3.1,0-5.7,2.5-5.7,5.7c0,3.1,2.5,5.7,5.7,5.7h113.9
		c2.1,4.4,6.6,7.5,11.9,7.5c7.3,0,13.2-5.9,13.2-13.2C144.6,59.7,138.7,53.8,131.4,53.8z"/>
</g>
</svg>
