<?xml version="1.0" encoding="utf-8"?>
<!-- Generator: Adobe Illustrator 24.0.0, SVG Export Plug-In . SVG Version: 6.00 Build 0)  -->
<svg version="1.1" id="Calque_1" xmlns="http://www.w3.org/2000/svg" xmlns:xlink="http://www.w3.org/1999/xlink" x="0px" y="0px"
	 viewBox="0 0 133.9 133.9" style="enable-background:new 0 0 133.9 133.9;" xml:space="preserve">
<style type="text/css">
	.st0{fill:#009BB3;}
	.st1{font-family:'NovaMono';}
	.st2{font-size:37px;}
	.st3{font-size:29px;}
	.st4{clip-path:url(#SVGID_2_);fill:#009BB3;}
</style>
<text transform="matrix(1 0 0 1 2.8624 56.3508)" class="st0 st1 st2">Open</text>
<text transform="matrix(1 0 0 1 3.1314 92.351)" class="st0 st1 st3">Laser</text>
<g>
	<defs>
		<rect id="SVGID_1_" width="133.9" height="133.9"/>
	</defs>
	<clipPath id="SVGID_2_">
		<use xlink:href="#SVGID_1_"  style="overflow:visible;"/>
	</clipPath>
	<path class="st4" d="M140.5,133.2l3.1-16.4c0.1-0.4,0.5-0.8,0.8-1l11.8-5c0.4-0.2,0.9-0.2,1.3,0.1l14,9.6c0.3,0.2,0.8,0.2,1.1-0.1
		l12-12c0.3-0.3,0.3-0.8,0.1-1.1L174.8,93c-0.2-0.3-0.3-0.9-0.1-1.3l4.7-11.4c0.1-0.4,0.6-0.8,1-0.8l17-3.2c0.4-0.1,0.7-0.5,0.7-0.9
		V58.5c0-0.4-0.3-0.8-0.7-0.9l-17-3.2c-0.4-0.1-0.8-0.5-1-0.8l-4.7-11.4c-0.2-0.4-0.1-0.9,0.1-1.3l9.7-14.2c0.2-0.3,0.2-0.8-0.1-1.1
		l-12-12c-0.3-0.3-0.8-0.3-1.1-0.1l-14,9.6c-0.3,0.2-0.9,0.3-1.3,0.1l-11.8-5c-0.4-0.1-0.8-0.6-0.8-1l-3.1-16.4
		C140.4,0.3,140,0,139.6,0l-16.9,0c-0.4,0-0.8,0.3-0.9,0.7l-3,16c-0.1,0.4-0.5,0.8-0.8,1l-12.5,5c-0.4,0.2-0.9,0.1-1.3-0.1
		l-13.3-9.1c-0.3-0.2-0.8-0.2-1.1,0.1l-12,12c-0.3,0.3-0.3,0.8-0.1,1.1l8.9,13c0.2,0.3,0.2,0.9,0,1.2l-3.1,5.8
		c-0.2,0.4,0,0.8,0.3,0.9l28.6,11.9c0.4,0.2,0.9,0,1.1-0.3l0.9-1.4c0.2-0.3,0.4-0.6,0.7-0.9c3.3-5.2,9.1-8.6,15.8-8.6
		c10.3,0,18.7,8.4,18.7,18.7s-8.4,18.7-18.7,18.7c-6.6,0-12.4-3.4-15.8-8.6c-0.3-0.3-0.5-0.6-0.7-0.9l-0.9-1.4
		c-0.2-0.3-0.7-0.5-1.1-0.3L84,86.2c-0.4,0.2-0.5,0.6-0.3,0.9l3.1,5.8c0.2,0.4,0.2,0.9,0,1.2l-8.9,13c-0.2,0.3-0.2,0.8,0.1,1.1
		l12,12c0.3,0.3,0.8,0.3,1.1,0.1l13.3-9.1c0.3-0.2,0.9-0.3,1.3-0.1l12.5,5c0.4,0.1,0.8,0.5,0.8,1l3,16c0.1,0.4,0.5,0.7,0.9,0.7
		l16.9,0C140,133.9,140.4,133.6,140.5,133.2"/>
	<path class="st4" d="M131.4,53.8c-5.2,0-9.8,3.1-11.9,7.5H5.7c-3.1,0-5.7,2.5-5.7,5.7c0,3.1,2.5,5.7,5.7,5.7h113.9
		c2.1,4.4,6.6,7.5,11.9,7.5c7.3,0,13.2-5.9,13.2-13.2C144.6,59.7,138.7,53.8,131.4,53.8z"/>
</g>
</svg>
